<svg width="178" height="60" viewBox="0 0 178 60" fill="none" xmlns="http://www.w3.org/2000/svg">
<path d="M56.2628 1.57339C54.1828 -0.0266079 51.2228 -0.18661 49.2228 2.13339C48.4228 3.01339 47.6228 3.89339 46.9028 4.77339C44.0228 8.45339 39.2228 18.6934 37.5428 23.2534C40.2628 17.8934 42.2628 12.7734 45.5428 7.65339C45.8628 7.25339 46.5828 5.81339 46.9028 6.13339C46.9028 6.69339 46.5828 7.33339 46.2628 7.81339L44.9828 10.3734C44.4228 11.4934 39.5428 20.3734 40.5828 18.8534C43.1428 15.1734 44.9028 11.0134 47.4628 7.17339C47.9428 7.25339 47.6228 7.65339 47.4628 7.89339C45.1428 12.0534 43.1428 16.2134 41.3028 20.4534C39.7828 24.1334 38.3428 28.4534 36.5828 31.8134C35.7828 33.3334 35.0628 37.0134 34.5028 38.8534C34.0228 40.3734 33.7828 42.1334 32.5828 43.2534C33.2228 40.9334 33.8628 38.6134 34.6628 36.2134C35.6228 33.4134 36.4228 31.0134 37.3028 28.1334C37.3828 27.9734 40.9028 18.1334 39.7028 20.8534C35.9428 29.6534 33.2228 38.8534 30.1028 47.8934C30.4228 44.6134 33.6228 34.9334 34.8228 31.2534C35.4628 29.3334 36.6628 26.1334 37.0628 24.2934C35.3828 26.5334 31.6228 39.0934 30.5828 42.3734C30.5028 42.8534 29.7028 46.4534 29.3028 45.6534C28.8228 44.4534 31.6228 35.5734 29.8628 30.2934C28.8228 27.3334 27.1428 25.8134 23.8628 27.5734C21.8628 29.0134 18.1028 38.6134 16.9028 41.3334C16.3428 42.4534 16.5028 42.8534 15.8628 42.6134C18.1028 30.6134 19.7828 26.5334 23.7028 14.9334C24.7428 11.6534 24.3428 7.73339 21.4628 5.81339C18.5028 3.97339 15.4628 3.17339 12.1028 5.17339C8.26277 7.41339 -0.457226 17.4134 0.182774 21.7334C0.502774 23.0134 2.98277 25.1734 4.10277 23.0134L5.38277 20.5334C7.78277 15.9734 12.4228 9.17339 17.5428 7.73339C17.9428 9.57339 17.7828 10.5334 17.2228 12.3734L15.0628 19.3334C11.7828 29.7334 9.14277 40.5334 10.5028 50.8534C10.9028 53.3334 10.9828 56.3734 13.4628 57.5734C15.2228 58.4534 17.1428 56.3734 17.6228 54.6934C19.6228 48.0534 20.5828 43.9734 24.7428 37.9734C24.6628 38.5334 24.6628 39.1734 24.6628 39.7334C24.5028 43.6534 24.0228 53.2534 25.6228 56.4534C26.2628 57.7334 28.5028 58.7734 29.8628 59.0934C31.2228 59.4134 32.0228 56.9334 32.1828 55.9734C34.1028 47.3334 36.0228 38.2934 39.3028 29.8934C40.5028 26.7734 42.0228 22.9334 43.5428 19.9734C47.3028 12.2134 50.1028 8.13339 56.7428 2.53339C56.5828 2.21339 56.5828 1.81339 56.2628 1.57339ZM13.8628 40.2934C13.7828 41.3334 13.3028 41.8134 13.3828 42.2934C13.4628 43.4134 13.5428 43.5734 13.3828 44.7734C13.0628 47.0934 13.2228 49.4934 12.5028 51.7334C12.1828 52.5334 12.1828 53.2534 11.9428 52.3734C10.1028 43.0134 13.1428 30.8534 15.8628 21.4134C16.7428 18.2134 15.3828 21.0134 16.8228 18.0534C17.5428 20.9334 16.9028 21.0934 16.3428 23.9734C15.7028 27.8134 17.2228 23.8934 16.1028 27.6534C15.1428 31.0134 14.9028 33.4134 14.2628 36.7734C13.9428 38.3734 14.0228 38.8534 13.8628 40.2934ZM26.2628 53.9734C25.7828 52.9334 25.6228 50.9334 25.6228 49.7334C25.5428 48.2934 25.3028 48.0534 26.0228 47.9734C26.1028 49.8934 26.2628 51.8134 26.2628 53.7334V53.9734ZM15.5428 38.6134C15.5428 38.2134 15.7828 37.2534 15.8628 36.8534C16.6628 32.9334 17.0628 32.9334 16.3428 36.6934C16.1828 37.4134 16.1828 38.6934 15.6228 38.6934L15.5428 38.6134ZM14.3428 44.2134L14.2628 44.2934C14.2628 44.2134 14.4228 43.0934 14.5028 42.8534C14.5028 42.6134 15.4628 42.7734 14.3428 44.2134ZM69.8628 31.0934L69.1428 31.6534C65.2228 35.3334 62.1828 38.8534 57.3028 42.3734C56.0228 43.7334 53.9428 44.1334 52.2628 44.6134C49.7828 45.3334 47.4628 45.0934 47.6228 41.6534C47.7028 41.2534 47.5428 40.9334 47.6228 40.5334C47.8628 39.4134 47.7028 38.0534 48.5028 37.0134L50.0228 37.4134C53.9428 38.6134 64.3428 27.0134 57.4628 22.6134C55.3028 21.2534 53.1428 21.3334 51.3828 23.1734C50.5828 23.9734 49.7828 24.9334 49.2228 25.9734C48.0228 28.0534 46.9828 30.2134 45.8628 32.3734L44.9828 35.8134C44.9828 36.1334 44.9828 36.5334 44.9028 36.8534C44.5028 39.0934 44.6628 41.2534 45.2228 43.4934C46.2628 46.9334 50.0228 49.9734 54.5028 48.3734C56.5028 47.6534 58.1028 46.3734 59.5428 44.9334C61.9428 42.6134 64.1028 39.8934 66.2628 37.2534C67.4628 35.8134 68.9028 34.3734 69.9428 32.8534C70.3428 32.2934 70.4228 32.0534 70.5028 31.8934C70.6628 31.7334 70.5028 31.5734 69.8628 31.0934ZM55.4628 25.0134C55.6228 27.6534 52.7428 31.7334 49.7828 32.8534C50.8228 29.8934 53.5428 26.1334 55.4628 25.0134ZM59.3028 43.4134C62.3428 40.1334 64.3428 37.2534 67.6228 33.9734C64.6628 37.3334 62.9828 40.7734 59.3028 43.4134ZM96.8228 31.0134C93.5428 34.5334 90.1828 42.2934 86.5828 45.8134C84.3428 47.9734 83.7028 47.0934 83.7828 44.8534C83.9428 40.0534 87.6228 29.1734 87.7028 28.9334C87.8628 28.2934 86.8228 27.8134 86.1028 27.3334C82.9828 25.5734 82.0228 27.4934 81.3028 30.2134L81.2228 30.4534C80.5828 30.1334 79.9428 29.5734 79.4628 29.1734C77.0628 27.0934 71.8628 26.4534 70.4228 28.7734L69.6228 29.9734C67.0628 33.5734 64.9828 36.5334 65.4628 41.7334C65.7028 44.0534 66.9828 45.8134 68.9828 47.2534C69.7828 47.8134 70.9028 48.0534 71.8628 48.2134C73.9428 48.6134 77.5428 39.8134 78.6628 38.2934C78.7428 38.2934 78.9028 37.9734 79.2228 37.4934C78.5028 40.6934 78.3428 43.9734 79.9428 46.6134C81.5428 49.1734 85.0628 50.8534 87.3828 48.6934C91.7028 44.6134 96.1828 33.9734 97.4628 31.8134C97.7028 31.3334 97.8628 31.5734 96.8228 31.0134ZM70.5028 42.5334C70.2628 42.9334 70.0228 43.3334 69.9428 43.7334C69.7828 44.6134 69.3028 44.1334 68.9828 43.6534C68.6628 43.2534 68.4228 42.6934 68.5028 42.2934C68.8228 38.8534 69.4628 35.5734 72.4228 33.6534C73.1428 33.0934 73.6228 32.2934 74.4228 31.8134C74.9028 31.4134 75.6228 31.3334 76.3428 31.1734C76.5828 31.1734 76.9028 31.4934 77.3828 31.7334C77.2228 32.0534 77.1428 32.3734 76.9828 32.5334L70.5028 42.5334ZM78.9028 34.0534C77.7828 35.4134 76.3428 38.3734 75.4628 40.0534C75.3828 40.0534 75.3828 40.1334 75.3028 40.1334C75.2228 40.1334 75.0628 40.0534 75.0628 39.9734C74.9828 39.8934 74.9828 39.7334 75.0628 39.6534C75.7028 38.8534 76.5028 37.4934 77.1428 35.9734C77.4628 35.0934 77.9428 34.3734 78.3428 33.8134C78.4228 33.6534 78.6628 33.6534 78.7428 33.5734C78.8228 33.7334 78.9028 33.9734 78.9028 34.0534ZM130.423 33.3334C130.903 31.3334 131.383 29.3334 132.023 27.4934C132.343 26.5334 132.583 25.7334 132.103 24.6934C130.983 22.1334 127.783 22.1334 126.183 24.0534L116.983 35.8134C116.423 36.6134 114.583 38.4534 114.023 39.3334C113.863 39.2534 114.343 37.3334 114.263 37.2534C114.903 34.6134 115.623 32.8534 116.343 30.2934L119.703 18.6134C123.303 18.8534 127.863 18.4534 127.383 14.9334L127.223 14.2934L127.063 13.8134C126.743 13.3334 126.023 12.6934 125.783 12.9334C125.623 13.6534 126.823 14.5334 125.703 15.4134C124.183 16.4534 122.263 16.6134 120.343 16.4534L121.383 12.4534C121.943 10.1334 120.663 9.09339 118.023 8.53339C117.223 8.37339 116.103 9.01339 115.943 9.65339C115.463 11.2534 114.743 13.3334 114.023 15.8134C113.863 15.7334 113.783 15.7334 113.703 15.7334C110.663 15.8934 109.303 15.4934 105.783 15.0134C105.863 13.2534 107.863 9.09339 106.023 8.05339C104.823 7.33339 101.623 6.45339 100.983 8.45339C100.423 10.2134 99.9428 12.1334 99.4628 13.8934C96.7428 13.4934 87.7828 12.4534 88.4228 17.3334L88.5828 17.8934L88.8228 18.3734C89.0628 18.8534 89.8628 19.4934 90.0228 19.2534C90.1828 18.6134 88.9828 17.6534 90.1028 16.7734C92.5828 15.1734 96.1028 15.7334 98.8228 16.2134C97.9428 19.6534 96.5028 25.4934 95.7828 28.9334L95.0628 33.5734V33.6534L94.6628 37.0934C94.5028 38.6134 94.4228 40.1334 94.5828 41.6534C95.0628 46.7734 96.9828 48.9334 98.5028 49.2534C101.383 49.8134 105.303 43.8934 108.343 38.4534C108.103 39.8134 107.943 41.2534 107.783 42.6934C107.703 43.6534 107.623 44.6934 108.343 45.4934C109.543 46.8534 109.863 46.6134 111.383 47.9734C115.863 43.4934 119.863 35.0934 125.303 29.3334C125.223 30.3734 124.103 34.6934 123.863 35.6534C123.063 39.5734 121.383 45.0134 121.703 49.2534C122.023 52.7734 124.183 55.9734 126.183 55.8934C127.543 55.8934 130.983 51.5734 131.303 50.4534C131.543 49.7334 131.463 49.4934 130.263 48.9334C126.663 52.8534 124.903 54.2134 126.663 46.6134C127.543 42.6934 129.463 37.2534 130.423 33.3334ZM102.183 44.6134C100.103 46.7734 99.3828 45.8934 99.3828 43.6534C99.6228 37.4934 102.743 25.3334 104.423 19.2534C104.983 17.2534 104.743 17.4934 106.823 17.7334C107.383 17.8934 110.903 18.4534 113.223 18.3734C111.863 22.7734 110.343 28.0534 109.223 33.4134C106.983 37.1734 105.303 41.1734 102.183 44.6134ZM121.143 33.3334C121.143 33.2534 121.063 33.2534 121.063 33.2534C124.503 28.6934 128.983 21.8134 121.063 31.9734L115.383 39.9734C115.223 40.2134 114.983 40.2934 114.743 40.3734C115.783 38.6134 125.143 25.6534 126.263 25.4934C126.983 25.4134 122.023 32.2934 121.143 33.3334ZM113.063 29.5734C113.063 30.5334 111.143 36.2934 110.503 39.0134C110.503 37.9734 111.463 33.9734 112.263 31.0134L112.503 30.5334C112.663 30.2934 112.663 30.1334 112.503 30.0534C112.823 28.8534 113.063 27.8934 113.223 27.4934C113.303 27.3334 113.543 25.3334 113.943 25.1734C113.623 26.2134 113.063 28.6934 113.063 29.5734ZM112.583 17.0934C112.503 17.1734 112.023 17.1734 111.063 17.1734C110.503 17.0934 106.343 16.6934 105.943 16.4534C108.503 16.8534 112.903 16.7734 112.583 17.0934ZM157.383 31.0934L156.663 31.6534C152.743 35.3334 149.703 38.8534 144.823 42.3734C143.543 43.7334 141.463 44.1334 139.783 44.6134C137.303 45.3334 134.983 45.0934 135.143 41.6534C135.223 41.2534 135.063 40.9334 135.143 40.5334C135.383 39.4134 135.223 38.0534 136.023 37.0134L137.543 37.4134C141.463 38.6134 151.863 27.0134 144.983 22.6134C142.823 21.2534 140.663 21.3334 138.903 23.1734C138.103 23.9734 137.303 24.9334 136.743 25.9734C135.543 28.0534 134.503 30.2134 133.383 32.3734L132.503 35.8134C132.503 36.1334 132.503 36.5334 132.423 36.8534C132.023 39.0934 132.183 41.2534 132.743 43.4934C133.783 46.9334 137.543 49.9734 142.023 48.3734C144.023 47.6534 145.623 46.3734 147.063 44.9334C149.463 42.6134 151.623 39.8934 153.783 37.2534C154.983 35.8134 156.423 34.3734 157.463 32.8534C157.863 32.2934 157.943 32.0534 158.023 31.8934C158.183 31.7334 158.023 31.5734 157.383 31.0934ZM142.983 25.0134C143.143 27.6534 140.263 31.7334 137.303 32.8534C138.343 29.8934 141.063 26.1334 142.983 25.0134ZM146.823 43.4134C149.863 40.1334 151.863 37.2534 155.143 33.9734C152.183 37.3334 150.503 40.7734 146.823 43.4134ZM174.743 21.4134C170.183 20.6134 167.783 23.6534 165.143 26.7734C164.023 28.1334 161.063 33.5734 160.983 33.4134C160.983 33.3334 161.943 29.3334 162.183 28.2134L162.343 27.4934C162.343 25.1734 161.063 23.0134 158.583 23.0934C157.223 23.1734 156.903 23.8934 156.583 25.0134C155.303 30.6934 153.703 39.2534 153.543 45.0134C153.543 46.9334 154.023 47.4934 155.703 48.3734C157.863 49.4934 159.383 47.1734 159.943 45.7334L160.103 45.3334L162.983 37.8134C163.623 36.3734 164.263 34.8534 165.063 33.4934C166.663 30.3734 168.663 27.5734 171.143 25.6534C173.063 24.2134 174.903 23.0934 177.063 24.6934C178.503 25.8134 178.103 22.0534 174.743 21.4134ZM165.063 30.6134C161.383 34.9334 161.543 33.9734 164.823 30.1334C165.143 29.6534 167.863 25.4934 168.263 26.5334C168.423 26.8534 165.463 30.2134 165.063 30.6134ZM166.983 25.4134V25.5734C166.263 26.6934 166.103 25.5734 166.983 25.4134Z" fill="url(#paint0_linear_6_4)"/>
<defs>
<linearGradient id="paint0_linear_6_4" x1="89" y1="0.379547" x2="89" y2="59.1217" gradientUnits="userSpaceOnUse">
<stop stop-color="#49484A"/>
<stop offset="1" stop-color="#49484A"/>
</linearGradient>
</defs>
</svg>
